<?xml version="1.0" encoding="UTF-8"?>
<svg xmlns="http://www.w3.org/2000/svg" xmlns:xlink="http://www.w3.org/1999/xlink" viewBox="0 0 48 48" version="1.1" width="96px" height="96px">
<g id="surface1">
<path style=" fill:#455A64;" d="M 39.101563 12.300781 C 38.800781 11.5 38.101563 10.5 37.5 9.5 C 36.699219 8.398438 35.699219 7.398438 34.601563 6.601563 C 31.800781 4.300781 28.699219 3.199219 25.300781 3 C 22.699219 2.800781 20.601563 3.199219 18.800781 3.5 C 17.5 3.800781 16.398438 4.101563 15.199219 4.800781 C 14.5 5.300781 13.898438 5.800781 13.101563 6.699219 C 12.300781 7.5 11.601563 8.300781 11.101563 8.5 C 9.601563 9.5 8.699219 10.800781 8.300781 12.398438 C 7.601563 15 7.800781 18.398438 8.800781 22.5 C 9 23 9.300781 23.601563 9.800781 24.300781 C 10.5 25.101563 10.800781 25.601563 11.101563 25.898438 C 10.898438 25.898438 10.898438 26.101563 10.601563 26.101563 L 10.101563 26.300781 C 9.601563 26.5 9.398438 26.800781 9.398438 27.300781 L 9.601563 27.898438 L 9.800781 28.398438 L 9.5 28.601563 L 9.5 28.898438 C 9.699219 29.699219 9.800781 30.199219 10.300781 30.699219 C 10.5 31.199219 10.800781 31.5 11 31.5 L 11.699219 31.5 C 11.898438 31.300781 12.199219 31.199219 12.199219 31.199219 C 12.5 30.898438 12.898438 30.898438 13.199219 31 L 13.699219 31.199219 L 14.398438 31.699219 C 14.699219 31.699219 14.898438 31.5 15.199219 31.398438 C 15.398438 31.199219 15.5 31.101563 15.5 31.101563 L 15 30.898438 L 14.5 30.898438 C 14 30.898438 13.800781 30.699219 13.800781 30.601563 L 15.800781 29 C 16.5 28.699219 17.300781 28.398438 18.101563 28.398438 C 18.601563 28.601563 18.800781 28.699219 18.800781 29 C 18.5 29.199219 18.300781 29.5 18.5 30 L 18.699219 30.601563 C 18.898438 30.800781 18.898438 30.898438 18.898438 31.101563 C 18.398438 30.898438 18.398438 31.300781 18.601563 32.199219 C 18.800781 32.699219 18.898438 33.300781 19.300781 34 C 19.300781 35.800781 19.5 39.300781 19.800781 43.800781 L 20.101563 44.101563 L 20.601563 44.398438 C 21.101563 44.699219 21.398438 44.699219 21.601563 44.398438 C 21.800781 44.101563 21.800781 42 21.800781 38.5 C 21.800781 34.898438 21.601563 33.101563 21.601563 32.800781 L 21.300781 32.5 C 21.601563 32.300781 22 32.300781 22.300781 32 C 22.101563 33.601563 22.5 38.101563 22.800781 44.898438 C 22.800781 45.101563 23 45.101563 23.5 45.101563 L 24.300781 45.101563 C 24.5 44.5 24.699219 42.601563 24.800781 39.300781 L 24.800781 34.898438 C 24.800781 33.601563 24.800781 32.601563 24.601563 32.101563 L 25.300781 32.101563 C 25.101563 34.199219 25.101563 36.800781 25.101563 39.898438 C 24.898438 43.300781 25.101563 45.199219 25.300781 45 L 26.101563 45 C 26.601563 45.199219 26.800781 43.300781 26.898438 39.5 C 27.101563 38 27.101563 36.601563 27.101563 35 C 27.101563 33.5 27.101563 32.398438 26.898438 31.601563 L 27.699219 31.398438 C 28.398438 31.699219 28.699219 32 28.699219 32 L 28.699219 32.199219 L 28 32.398438 L 27.699219 32.601563 C 27.699219 32.800781 27.699219 33.398438 27.5 34.699219 L 27.300781 39.101563 C 27.101563 43.199219 27.300781 45.199219 27.5 45 L 29.300781 44.699219 C 29.5 44.5 29.601563 43.101563 29.800781 40.199219 C 30 37.800781 30 35.699219 30 33.898438 C 30.5 33.398438 30.800781 32.601563 31.101563 31.300781 L 31.300781 30 C 31.300781 29.699219 31.300781 29.398438 31.101563 29.398438 L 30.898438 29.199219 L 31.101563 28.898438 L 32.101563 28.601563 L 33.101563 28.300781 C 33.898438 28.101563 34.601563 28.5 35.101563 28.898438 C 35.300781 29.199219 35.398438 29.5 35.300781 30 L 35.101563 30.300781 C 35.101563 30.5 35.101563 30.5 34.898438 30.5 C 34.699219 31 34.898438 31.300781 35.398438 31.300781 C 35.898438 31.5 36.199219 31.5 36.699219 31.101563 C 36.898438 30.800781 37.398438 30.5 38 30.101563 C 38.5 29.800781 38.800781 29.300781 39 29 L 39.199219 27.898438 C 39.199219 27.398438 39 27.300781 38.699219 27.101563 C 38 27 38 26.898438 38 26.898438 L 38 26.601563 C 38.199219 26.300781 38.300781 26 38.199219 25.601563 L 38.898438 22.5 C 39.398438 21 39.601563 19.898438 39.699219 18.898438 C 40.300781 16 40.101563 13.699219 39.101563 12.300781 Z M 20.101563 24.5 L 19.101563 24.5 C 18.898438 24.699219 18.601563 24.699219 17.800781 24.5 L 15.699219 24.199219 C 13.601563 23.898438 12.398438 23.601563 12.398438 23.398438 C 11.898438 23.199219 11.601563 22.898438 11.300781 22.398438 C 11 21.898438 10.800781 21.601563 11 21.300781 C 10.5 20.699219 10.300781 20 10.300781 18.898438 L 10.5 17.800781 C 10.699219 17.5 10.699219 17.5 10.699219 17.5 C 10.5 17.199219 10.898438 17.300781 11.699219 17.699219 C 12.699219 18 13.5 18.5 14.300781 19 C 14.800781 19.199219 16.300781 20 18.398438 21.398438 C 18.898438 21.699219 19.699219 22 20.5 22.398438 L 22.800781 23.398438 C 23 23.601563 23 23.601563 22.601563 23.699219 C 22.398438 23.898438 21.898438 24 21.5 24.199219 Z M 22.898438 28.300781 L 22.699219 29.300781 L 22.5 29.5 L 22 29.199219 L 21.699219 28.601563 L 21.398438 28 L 21.398438 27.5 L 21.601563 27.199219 L 21.898438 26.898438 L 22.101563 26.398438 L 22.601563 25.300781 L 22.601563 25.101563 L 22.800781 24.898438 L 23 24.699219 L 23.300781 24.5 L 23.5 24.199219 L 23.699219 24 L 23.699219 26.898438 L 24 26.898438 Z M 26.398438 27.898438 L 26.101563 28.5 L 25.800781 29.101563 L 25.5 29.398438 L 25.300781 29.601563 L 25.101563 28.101563 L 24.101563 26.601563 L 24.101563 24.300781 L 24.300781 23.800781 L 24.5 24.101563 L 24.800781 24.300781 L 25.199219 24.699219 L 25.199219 24.898438 L 25.699219 26.199219 L 26.300781 26.800781 L 26.5 27.101563 C 26.601563 27.398438 26.601563 27.699219 26.398438 27.898438 Z M 37.300781 21.199219 C 37.101563 21.800781 37 22.300781 36.601563 22.5 C 36.398438 22.800781 36.101563 23.101563 35.800781 23.300781 C 35.601563 23.601563 34.5 23.898438 32.5 24.101563 L 30.199219 24.398438 C 29.5 24.601563 29.101563 24.601563 28.898438 24.398438 C 28.699219 24.601563 28.398438 24.398438 27.898438 24.199219 L 26.601563 24 C 25.300781 23.699219 24.800781 23.398438 25.300781 23.199219 L 27.699219 22.398438 C 28.699219 22.101563 29.300781 21.601563 29.800781 21.300781 L 31.898438 20 C 32.898438 19.398438 33.5 19 33.898438 18.898438 C 34.601563 18.601563 35.5 18.300781 36.699219 17.898438 C 36.699219 17.601563 37 17.398438 37.398438 17.398438 C 37.601563 17.199219 37.699219 17.398438 37.699219 17.601563 C 37.898438 17.601563 37.898438 17.800781 37.898438 17.898438 L 37.898438 18.898438 L 38 18.898438 C 37.800781 19.699219 37.699219 20.601563 37.300781 21.199219 Z "/>
</g>
</svg>
